# xmcd
#
# Track frame offsets: 
#        150
#        27490
#        53810
#        79645
#        108795
#        134105
#        161127
#        191809
#        215450
#        241052
#        266282
#        291165
#        307545
#        332337
#
# Disc length: 4725 seconds
#
# Revision: 3
# Processed by: cddbd v1.5.2PL0 Copyright (c) Steve Scherf et al.
# Submitted via: ExactAudioCopy v0.99pb4
#
DISCID=bc12730e
DTITLE=Barry White - Staying Power
DYEAR=1999
DGENRE=Soul
TTITLE0=Staying Power
TTITLE1=Don't Play Games
TTITLE2=The Longer We Make Love (duet with Chaka Khan)
TTITLE3=I Get off on You
TTITLE4=Which Way Is Up
TTITLE5=Get Up
TTITLE6=Sometimes
TTITLE7=Low Rider
TTITLE8=Thank You
TTITLE9=Slow Your Roll
TTITLE10=The Longer We Make Love (duet with Lisa Stansfield)
TTITLE11=I've Got So Much To Give
TTITLE12=Practice What You Preach (remix)
TTITLE13=Love Serenade
EXTD=I found this disk in Russia\n
EXTT0=
EXTT1=
EXTT2=
EXTT3=
EXTT4=
EXTT5=
EXTT6=
EXTT7=
EXTT8=
EXTT9=
EXTT10=
EXTT11=
EXTT12=
EXTT13=
PLAYORDER=
